<?xml version="1.0" encoding="utf-8"?>
<!-- Svg Vector Icons : http://www.onlinewebfonts.com/icon -->
<!DOCTYPE svg PUBLIC "-//W3C//DTD SVG 1.1//EN" "http://www.w3.org/Graphics/SVG/1.1/DTD/svg11.dtd">
<svg version="1.1" xmlns="http://www.w3.org/2000/svg" xmlns:xlink="http://www.w3.org/1999/xlink" x="0px" y="0px" viewBox="0 0 1000 1000" enable-background="new 0 0 1000 1000" xml:space="preserve">
<metadata> Svg Vector Icons : http://www.onlinewebfonts.com/icon </metadata>
<g><g><g><path d="M756.9,785.2h-574C87.6,785.2,10,707.6,10,612.2c0-88.8,66.5-162.8,154.8-172l7.9-1.9v-8c0-95.3,77.6-172.9,173-172.9c65.4,0,124.4,36.3,154.1,94.8l3.3,6.6l7.1-2.1c15.9-4.6,32.1-7,48.2-7c62.8,0,120.8,34.2,151.3,89.3l3.3,5.8l6.5-1.4c110.9-24.5,210.4,61.1,210.4,168.7C929.8,707.6,852.2,785.2,756.9,785.2z M950.2,555.4c-24.3-92.8-116.7-158.7-219.3-139.5c-34.4-57.4-96.5-92.8-163.6-92.8c-15.4,0-30.9,1.9-46.2,5.7c-12.5-22.5-29.1-41.7-48.5-57.1c21.5-34,59.1-56.9,102.3-56.9c45.8,0,87.1,25.4,107.9,66.4l3.3,6.6l7.1-2c54.6-15.9,112.8,9.2,139.7,57.6l3.3,5.8l6.5-1.4C920.6,330.7,990,390.6,990,466C990,501.5,974.6,533.3,950.2,555.4z"/></g></g><g></g><g></g><g></g><g></g><g></g><g></g><g></g><g></g><g></g><g></g><g></g><g></g><g></g><g></g><g></g></g>
</svg>